<?xml version="1.0" encoding="utf-8"?>
<!-- Generator: Adobe Illustrator 19.0.0, SVG Export Plug-In . SVG Version: 6.00 Build 0)  -->
<svg version="1.1" id="Calque_1" xmlns="http://www.w3.org/2000/svg" xmlns:xlink="http://www.w3.org/1999/xlink" x="0px" y="0px"
	 viewBox="400 -220 1000 500" style="enable-background:new 400 -220 1000 500;" xml:space="preserve">
<style type="text/css">
	.st0{display:none;}
	.st1{display:inline;fill:#161616;}
	.st2{fill:#FFFFFF;}
	.st3{fill:#3AF9BA;}
	.st4{fill:#F2DBC2;}
	.st5{fill:#C1272D;}
	.st6{clip-path:url(#SVGID_3_);}
	.st7{clip-path:url(#SVGID_5_);}
	.st8{clip-path:url(#SVGID_7_);}
</style>
<g id="Calque_2" class="st0">
	<rect id="XMLID_1_" x="400" y="-220" class="st1" width="1000" height="500"/>
</g>
<g id="Calque_1_1_">
	<g id="XMLID_88_">
		<path id="XMLID_916_" class="st2" d="M845.7-31.3h-44.3l-5.2,11.8H807V0.7h-43.4v-20.2h9.3L803-84.2h-9.9v-19.9h43.7l36.8,84.6
			h9.1V0.7h-43.6v-20.2h11.5L845.7-31.3z M816.8-65.4l-6.9,15.3h27.9l-6.4-15.3L824.5-84L816.8-65.4z"/>
		<path id="XMLID_919_" class="st2" d="M888.2,0.8v-18.6h10.3v-68h-9.9v-18.1h30.7v38.6c4.9-6.1,14.4-10.2,24.4-10.2
			c21.6,0,36.2,12.6,36.2,39.2c0,25.6-15.9,38.6-38.3,38.3c-7.8,0-17.7-2.8-22.3-9.7l-1.5,8.4h-29.6L888.2,0.8L888.2,0.8z
			 M920.9-36.8c0,15.1,11.5,19.6,19,19.6c10.3,0,18.7-7.2,18.7-19c0-13.8-8.7-19.8-19.3-19.8C933.3-56,921-51.8,920.9-36.8z"/>
		<path id="XMLID_922_" class="st2" d="M1029-75.5c25.3,0,39.5,16.3,39.5,39.2c0,21.1-14.7,38.8-39.4,38.8
			c-24.7,0-39.4-16.5-39.4-38.8C989.8-59.1,1004.9-75.5,1029-75.5z M1029.5-56.7c-12.6,0-18.9,8.7-18.9,20.5
			c0,10.3,6,19.3,18.6,19.3c12.6,0,18.6-9,18.9-19.3C1048-48.1,1040.8-56.7,1029.5-56.7z"/>
		<path id="XMLID_925_" class="st2" d="M1161.9-18h10.3V0.7h-26.1l-2.1-9.4c-8.2,8.2-17.4,10.6-24.4,10.8
			c-27.1,0-33.6-16.6-33.6-37.6v-20.4h-9.6v-17.7h30.3v37.9c0,10.3,3.6,17.7,17.8,17.7c10-0.3,16.5-8.7,16.5-19v-18.9h-11.1v-17.7
			h31.9L1161.9-18L1161.9-18z"/>
		<path id="XMLID_927_" class="st2" d="M1211.7-93.4v20.5h19.2v17.8h-19.5V-26c0,9.1,8.1,11.4,16.8,7.6l5.1,17.2
			c-7.2,2.7-11.2,3.1-17.8,3.1c-17.1-0.1-24.6-7.9-24.6-28v-29H1178v-17.8h12.9v-18.3L1211.7-93.4z"/>
		<path id="XMLID_906_" class="st3" d="M911.6,59.8l22.9-75.1h-2.7C914.1-15.6,906-4.9,901.3,4.1L899.1,4l6.9-19.4l1.6-4.3h76.5
			l-1.2,4.3l-5,19.4l-2.2,0.1c0.8-9-1.2-19.7-19.2-19.4h-2.3l-23.1,75.1c-3,9.5,1.4,11.5,6,12.3l-0.5,2.1h-39.5l0.7-2.1
			C902.2,71.3,908.7,69.5,911.6,59.8z"/>
		<path id="XMLID_860_" class="st4" d="M986.3-15.5l0.5-2l28.4-5l-17.3,57.2c11.2-20.9,22.6-27.1,31-27.1c9.4,0,14.7,7.3,11.1,18.1
			l-9.8,29.2c-2.9,8.5-1.7,11.7,0.8,11.7c2.3,0,6.6-3,12.4-12.4l1.4,1c-5.1,11.1-14.3,20.3-24.1,20.3c-7.8,0-13.8-7-9-20.6l9.4-27
			c3-8.9,0.9-11.1-1.4-11.1c-5,0-18.9,12.1-29.3,42.8L986,74.2h-18.4l24.2-79.1C994.5-14,990.3-15.3,986.3-15.5z"/>
		<path id="XMLID_910_" class="st3" d="M1049.5,55.1l10.7-34.3c2.1-8.1-1.7-9.6-5.6-10.3l0.5-2.1h27.4l-14.6,46.5
			c-2.7,8.5-1.7,11.7,0.8,11.7c2.3,0,6.8-3,12.4-12.4l1.4,1c-5.1,11.1-14.2,20.3-24,20.3C1049.7,75.7,1045.2,68.6,1049.5,55.1z
			 M1076.1-19.3c5.9,0,10.6,4.7,10.6,10.6c0,6-4.7,10.7-10.6,10.7c-6,0-10.7-4.7-10.7-10.7C1065.4-14.6,1070.1-19.3,1076.1-19.3z"/>
		<path id="XMLID_913_" class="st3" d="M1081,69.1l5.9-17.7h1.4c1.4,5.9,3.7,10.7,6.5,14.2c3.4,4.4,7.2,6.5,11.3,6.5
			c4.3,0,8.3-2.5,8.9-6.8c0.7-7-8.7-16-14.7-22.4c-6-6-8.3-9.9-7.8-15.8c0.5-11.9,10.8-19.4,25-19.6c7.4,0,14.2,2,20.7,5.2
			l-5.7,17.3h-1.4c-0.8-4.2-2.1-8.5-3.8-11.2c-2.9-5-6.9-7.7-11.2-7.6c-4.2,0-8.2,2.6-8.6,7c-0.3,5.7,7,12.1,14.6,20.9
			c5.7,6,8.2,11,7.6,17.3c-0.9,10.2-9,19.2-24.4,19.3C1096.4,76,1087.7,72.9,1081,69.1z"/>
		<path id="XMLID_887_" class="st5" d="M845.6,154.9h-22.2l-13.6-33.6L801,97l-8.4,24.4l-13,33.4h-22.9L728.2,70h-10.6V49.9h46.5V70
			h-10.9l16.3,53.2l24.3-68.9h15l24.9,68.9L849.1,70H838V49.9h45.5V70h-9.6L845.6,154.9z"/>
		<path id="XMLID_889_" class="st5" d="M954.6,145.3c-8.1,7.9-21.4,11.7-32.4,11.7c-28.9,0-41-17.7-41-39.8
			c0-23.2,15.6-38.6,40-38.6c24.7,0,40.3,13,35.9,46.6h-54.7c1,7.5,7.8,13,20.2,13c6,0,14.5-2.2,19.6-6.4L954.6,145.3z M938,109.2
			c0.3-9.1-7.3-12.9-16.6-12.9c-9.1,0-17.2,4.2-19,12.9H938z"/>
		<path id="XMLID_862_" class="st5" d="M966.6,154.9v-18.6h10.3v-68h-9.8V50.2h30.7v38.6c4.9-6.1,14.4-10.2,24.4-10.2
			c21.6,0,36.2,12.6,36.2,39.2c0,25.6-15.9,38.6-38.3,38.3c-7.8,0-17.7-2.8-22.3-9.7l-1.5,8.4h-29.7L966.6,154.9L966.6,154.9z
			 M999.3,117.3c0,15.1,11.5,19.6,19,19.6c10.3,0,18.7-7.2,18.7-19c0-13.8-8.7-19.8-19.3-19.8C1011.7,98.1,999.4,102.3,999.3,117.3z
			"/>
		<path id="XMLID_895_" class="st5" d="M1114.6,104.4l-0.9-8.5c-2.2-1.2-7-2.1-11.4-2.1c-6.1,0-12,2.2-12,8.2
			c0,5.4,7.3,5.8,11.8,6.1c18.4,1,33.6,6,33.6,25.2c-0.4,14.1-12.4,24.3-33.1,24.3c-11.7,0-23.1-2.2-33.3-8.7l0.6-20.7h17.7l0.7,8.2
			c2.8,1.6,7.6,2.8,14.7,3c7.6,0.1,12-2.1,12-6.9c0-3.7-4.5-6.7-14.2-7.2c-17.5-2.1-31.2-5.7-31.2-23.1
			c-0.3-17.8,17.2-24.7,33.4-24.7c9.7,0,20.4,2.1,28.9,6.3l-0.1,20.5h-17.2V104.4z"/>
		<path id="XMLID_897_" class="st5" d="M1177.7,80.4v56.2h8.5v18.3h-39.1v-18.3h9.4V98.4h-9.3v-18H1177.7z M1155.2,61
			c0-7.6,6-11.8,12.1-11.8c6.6,0,12.6,4.3,12.6,12.1c0,7.3-6,11.7-12.3,11.7C1161.2,72.8,1155.2,68.4,1155.2,61z"/>
		<path id="XMLID_900_" class="st5" d="M1226.5,60.7v20.5h19.2V99h-19.5v29.1c0,9.1,8.1,11.4,16.8,7.6l5.1,17.2
			c-7.2,2.7-11.2,3.1-17.8,3.1c-17.1-0.2-24.6-7.9-24.6-28V98.9h-12.9V81.1h12.9V62.9L1226.5,60.7z"/>
		<path id="XMLID_902_" class="st5" d="M1328.6,145.3c-8.1,7.9-21.4,11.7-32.4,11.7c-28.9,0-41-17.7-41-39.8
			c0-23.2,15.6-38.6,40-38.6c24.7,0,40.3,13,35.9,46.6h-54.7c1,7.5,7.8,13,20.2,13c6,0,14.5-2.2,19.6-6.4L1328.6,145.3z M1312,109.2
			c0.3-9.1-7.3-12.9-16.6-12.9c-9.1,0-17.2,4.2-19,12.9H1312z"/>
		<path id="XMLID_854_" class="st4" d="M911.6,59.8l22.9-75.1h-2.7C914.1-15.6,906-4.9,901.3,4.1L899.1,4l6.9-19.4l1.6-4.3h76.5
			l-1.2,4.3l-5,19.4l-2.2,0.1c0.8-9-1.2-19.7-19.2-19.4h-2.3l-23.1,75.1c-3,9.5,1.4,11.5,6,12.3l-0.5,2.1h-39.5l0.7-2.1
			C902.2,71.3,908.7,69.5,911.6,59.8z"/>
		<path id="XMLID_867_" class="st4" d="M1049.5,55.1l10.7-34.3c2.1-8.1-1.7-9.6-5.6-10.3l0.5-2.1h27.4l-14.6,46.5
			c-2.7,8.5-1.7,11.7,0.8,11.7c2.3,0,6.8-3,12.4-12.4l1.4,1c-5.1,11.1-14.2,20.3-24,20.3C1049.7,75.7,1045.2,68.6,1049.5,55.1z
			 M1076.1-19.3c5.9,0,10.6,4.7,10.6,10.6c0,6-4.7,10.7-10.6,10.7c-6,0-10.7-4.7-10.7-10.7C1065.4-14.6,1070.1-19.3,1076.1-19.3z"/>
		<path id="XMLID_870_" class="st4" d="M1081,69.1l5.9-17.7h1.4c1.4,5.9,3.7,10.7,6.5,14.2c3.4,4.4,7.2,6.5,11.3,6.5
			c4.3,0,8.3-2.5,8.9-6.8c0.7-7-8.7-16-14.7-22.4c-6-6-8.3-9.9-7.8-15.8c0.5-11.9,10.8-19.4,25-19.6c7.4,0,14.2,2,20.7,5.2
			l-5.7,17.3h-1.4c-0.8-4.2-2.1-8.5-3.8-11.2c-2.9-5-6.9-7.7-11.2-7.6c-4.2,0-8.2,2.6-8.6,7c-0.3,5.7,7,12.1,14.6,20.9
			c5.7,6,8.2,11,7.6,17.3c-0.9,10.2-9,19.2-24.4,19.3C1096.4,76,1087.7,72.9,1081,69.1z"/>
		<path id="XMLID_872_" class="st2" d="M845.7-31.3h-44.3l-5.2,11.8H807V0.7h-43.4v-20.2h9.3L803-84.2h-9.9v-19.9h43.7l36.8,84.6
			h9.1V0.7h-43.6v-20.2h11.5L845.7-31.3z M816.8-65.4l-6.9,15.3h27.9l-6.4-15.3L824.5-84L816.8-65.4z"/>
		<g id="XMLID_915_">
			<g>
				<g>
					<path id="SVGID_1_" class="st5" d="M966.6,154.9v-18.6h10.3v-68h-9.8V50.2h30.7v38.6c4.9-6.1,14.4-10.2,24.4-10.2
						c21.6,0,36.2,12.6,36.2,39.2c0,25.6-15.9,38.6-38.3,38.3c-7.8,0-17.7-2.8-22.3-9.7l-1.5,8.4h-29.7L966.6,154.9L966.6,154.9z
						 M999.3,117.3c0,15.1,11.5,19.6,19,19.6c10.3,0,18.7-7.2,18.7-19c0-13.8-8.7-19.8-19.3-19.8
						C1011.7,98.1,999.4,102.3,999.3,117.3z"/>
				</g>
				<g>
					<defs>
						<path id="SVGID_2_" d="M966.6,154.9v-18.6h10.3v-68h-9.8V50.2h30.7v38.6c4.9-6.1,14.4-10.2,24.4-10.2
							c21.6,0,36.2,12.6,36.2,39.2c0,25.6-15.9,38.6-38.3,38.3c-7.8,0-17.7-2.8-22.3-9.7l-1.5,8.4h-29.7L966.6,154.9L966.6,154.9z
							 M999.3,117.3c0,15.1,11.5,19.6,19,19.6c10.3,0,18.7-7.2,18.7-19c0-13.8-8.7-19.8-19.3-19.8
							C1011.7,98.1,999.4,102.3,999.3,117.3z"/>
					</defs>
					<clipPath id="SVGID_3_">
						<use xlink:href="#SVGID_2_"  style="overflow:visible;"/>
					</clipPath>
					<path id="XMLID_908_" class="st6" d="M986.3-15.5l0.5-2l28.4-5l-17.3,57.2c11.2-20.9,22.6-27.1,31-27.1
						c9.4,0,14.7,7.3,11.1,18.1l-9.8,29.2c-2.9,8.5-1.7,11.7,0.8,11.7c2.3,0,6.6-3,12.4-12.4l1.4,1c-5.1,11.1-14.3,20.3-24.1,20.3
						c-7.8,0-13.8-7-9-20.6l9.4-27c3-8.9,0.9-11.1-1.4-11.1c-5,0-18.9,12.1-29.3,42.8L986,74.2h-18.4l24.2-79.1
						C994.5-14,990.3-15.3,986.3-15.5z"/>
				</g>
			</g>
		</g>
		<g id="XMLID_856_">
			<g>
				<g>
					<defs>
						<path id="SVGID_4_" d="M888.2,0.8v-18.6h10.3v-68h-9.9v-18.1h30.7v38.6c4.9-6.1,14.4-10.2,24.4-10.2
							c21.6,0,36.2,12.6,36.2,39.2c0,25.6-15.9,38.6-38.3,38.3c-7.8,0-17.7-2.8-22.3-9.7l-1.5,8.4h-29.6L888.2,0.8L888.2,0.8z
							 M920.9-36.8c0,15.1,11.5,19.6,19,19.6c10.3,0,18.7-7.2,18.7-19c0-13.8-8.7-19.8-19.3-19.8C933.3-56,921-51.8,920.9-36.8z"/>
					</defs>
					<clipPath id="SVGID_5_">
						<use xlink:href="#SVGID_4_"  style="overflow:visible;"/>
					</clipPath>
					<path id="XMLID_863_" class="st7" d="M911.6,59.8l22.9-75.1h-2.7C914.1-15.6,906-4.9,901.3,4.1L899.1,4l6.9-19.4l1.6-4.3h76.5
						l-1.2,4.3l-5,19.4l-2.2,0.1c0.8-9-1.2-19.7-19.2-19.4h-2.3l-23.1,75.1c-3,9.5,1.4,11.5,6,12.3l-0.5,2.1h-39.5l0.7-2.1
						C902.2,71.3,908.7,69.5,911.6,59.8z"/>
				</g>
			</g>
		</g>
		<g id="XMLID_885_">
			<g>
				<g>
					<defs>
						<path id="SVGID_6_" d="M1029-75.5c25.3,0,39.5,16.3,39.5,39.2c0,21.1-14.7,38.8-39.4,38.8c-24.7,0-39.4-16.5-39.4-38.8
							C989.8-59.1,1004.9-75.5,1029-75.5z M1029.5-56.7c-12.6,0-18.9,8.7-18.9,20.5c0,10.3,6,19.3,18.6,19.3
							c12.6,0,18.6-9,18.9-19.3C1048-48.1,1040.8-56.7,1029.5-56.7z"/>
					</defs>
					<clipPath id="SVGID_7_">
						<use xlink:href="#SVGID_6_"  style="overflow:visible;"/>
					</clipPath>
					<path id="XMLID_865_" class="st8" d="M986.3-15.5l0.5-2l28.4-5l-17.3,57.2c11.2-20.9,22.6-27.1,31-27.1
						c9.4,0,14.7,7.3,11.1,18.1l-9.8,29.2c-2.9,8.5-1.7,11.7,0.8,11.7c2.3,0,6.6-3,12.4-12.4l1.4,1c-5.1,11.1-14.3,20.3-24.1,20.3
						c-7.8,0-13.8-7-9-20.6l9.4-27c3-8.9,0.9-11.1-1.4-11.1c-5,0-18.9,12.1-29.3,42.8L986,74.2h-18.4l24.2-79.1
						C994.5-14,990.3-15.3,986.3-15.5z"/>
				</g>
			</g>
		</g>
		<path id="XMLID_881_" class="st2" d="M1161.9-18h10.3V0.7h-26.1l-2.1-9.4c-8.2,8.2-17.4,10.6-24.4,10.8
			c-27.1,0-33.6-16.6-33.6-37.6v-20.4h-9.6v-17.7h30.3v37.9c0,10.3,3.6,17.7,17.8,17.7c10-0.3,16.5-8.7,16.5-19v-18.9h-11.1v-17.7
			h31.9L1161.9-18L1161.9-18z"/>
		<path id="XMLID_883_" class="st2" d="M1211.7-93.4v20.5h19.2v17.8h-19.5V-26c0,9.1,8.1,11.4,16.8,7.6l5.1,17.2
			c-7.2,2.7-11.2,3.1-17.8,3.1c-17.1-0.1-24.6-7.9-24.6-28v-29H1178v-17.8h12.9v-18.3L1211.7-93.4z"/>
	</g>
</g>
<path id="Clé" class="st4" d="M647.4,191.4c-2.1,10.8,15.9,14.3,18,3.5l12.4-63.5c2.4,0.5,4.1-1.7,4.5-4.1l0.9-4.8
	c0.5-2.4-0.3-5-2.7-5.5l15-76.8c0.1-0.1,0.2-0.2,0.2-0.2l9.1-47.5l0.7-3.7c2.4,0.5,3.8-0.5,4.3-2.9l0.9-4.8c0.5-2.4-0.3-5-2.7-5.5
	l3.5-18c5.1,6,11.5,10.9,19.9,12.6c20.4,4,39.2-9.8,42.9-28.9c4.2-21.6-12.9-42.3-35.1-42.9c9.3-15.6,0.8-35.9-17.2-39.4
	c-19.2-3.7-34.6,11.9-31.9,29.8c-20.9-7.8-44.5,5-48.7,26.6c-3.7,19.2,8.6,39,28.9,42.9c8.4,1.6,16.3-0.6,23.2-4.2l-3.5,18
	c-2.4-0.5-4.1,1.7-4.5,4.1l-0.9,4.8c-0.5,2.4,0.5,3.8,2.9,4.3l-1.3,6.5l-10.1,51.9l0,0l-13.6,69.7c-2.4-0.5-4.1,1.7-4.5,4.1
	l-0.9,4.8c-0.5,2.4,0.3,5,2.7,5.5l-1.6,8.4l-34.7-6.8l-1.9,9.6l21.6,4.2l-1.9,9.6l-16.8-3.3l-1.9,9.6l10.8,2.1l-1.9,9.6l-15.6-3
	l-1.9,9.6l34.7,6.8L647.4,191.4z M715.8-70c2.6-13.2,14.2-22.1,27.4-19.5c13.2,2.6,21.9,15.4,19.3,28.6
	c-2.6,13.2-15.4,21.9-28.6,19.3C720.7-44.2,713.2-56.8,715.8-70z M702.6-117.3c1.6-8.4,8.8-13.2,17.2-11.6
	c7.2,1.4,13.2,8.8,11.6,17.2c-1.4,7.2-2.8,14.4-10,13C713-100.4,701.2-110.1,702.6-117.3z M672.8-53.5
	c-13.2-2.6-21.9-15.4-19.3-28.6c2.6-13.2,15.4-21.9,28.6-19.3c13.2,2.6,20.7,15.2,18.1,28.4C697.6-59.9,686-51,672.8-53.5z"/>
</svg>
