<?xml version="1.0" encoding="utf-8"?>
<!-- Generator: Adobe Illustrator 19.0.0, SVG Export Plug-In . SVG Version: 6.00 Build 0)  -->
<svg version="1.1" id="Calque_1" xmlns="http://www.w3.org/2000/svg" xmlns:xlink="http://www.w3.org/1999/xlink" x="0px" y="0px"
	 viewBox="400 -220 1000 500" style="enable-background:new 400 -220 1000 500;" xml:space="preserve">
<style type="text/css">
	.st0{display:none;}
	.st1{display:inline;fill:#161616;}
	.st2{display:inline;}
	.st3{fill:#F2DBC2;}
	.st4{display:inline;fill:#F2DBC2;}
	.st5{display:inline;fill:url(#XMLID_4_);}
	.st6{clip-path:url(#SVGID_2_);fill:#C1272D;}
	.st7{clip-path:url(#SVGID_4_);fill:#C1272D;}
	.st8{clip-path:url(#SVGID_6_);fill:#C1272D;}
	.st9{clip-path:url(#SVGID_8_);fill:#C1272D;}
	.st10{clip-path:url(#SVGID_10_);fill:#C1272D;}
	.st11{clip-path:url(#SVGID_12_);fill:#C1272D;}
	.st12{clip-path:url(#SVGID_14_);fill:#C1272D;}
	.st13{clip-path:url(#SVGID_16_);fill:#C1272D;}
	.st14{clip-path:url(#SVGID_18_);fill:#C1272D;}
	.st15{clip-path:url(#SVGID_20_);fill:#C1272D;}
	.st16{clip-path:url(#SVGID_22_);fill:#C1272D;}
	.st17{clip-path:url(#SVGID_24_);fill:#C1272D;}
	.st18{display:inline;fill:#C1272D;}
	.st19{display:none;fill:url(#XMLID_5_);}
	.st20{clip-path:url(#SVGID_26_);fill:#F2DBC2;}
	.st21{clip-path:url(#SVGID_28_);fill:#F2DBC2;}
	.st22{clip-path:url(#SVGID_30_);fill:#F2DBC2;}
	.st23{clip-path:url(#SVGID_32_);fill:#F2DBC2;}
	.st24{clip-path:url(#SVGID_34_);fill:#F2DBC2;}
	.st25{clip-path:url(#SVGID_36_);fill:#F2DBC2;}
	.st26{clip-path:url(#SVGID_38_);fill:#F2DBC2;}
	.st27{clip-path:url(#SVGID_40_);fill:#F2DBC2;}
	.st28{clip-path:url(#SVGID_42_);fill:#F2DBC2;}
	.st29{clip-path:url(#SVGID_44_);fill:#F2DBC2;}
	.st30{clip-path:url(#SVGID_46_);fill:#F2DBC2;}
	.st31{clip-path:url(#SVGID_48_);fill:#F2DBC2;}
</style>
<g id="Logo">
	<g id="Calque_2" class="st0">
		<rect id="XMLID_1_" x="600.3" y="429.5" class="st1" width="1000" height="500"/>
	</g>
</g>
<g id="Search" class="st0">
	<text transform="matrix(1 0 0 1 513.6946 994.519)" class="st4" style="font-family:'NexaSlab-Bold'; font-size:20.7076px;">Search</text>
	<g class="st2">
		<path class="st3" d="M536.4,976.2h-5.7c-3.3,0-5.2-1.7-7.6-4.1l0,0l0,0l-8.6-10.6c-1.3-1.6-1-4,0.6-5.3c1.6-1.3,4-1,5.3,0.6
			l1.2,1.5v-20.1c0-2.1,1.6-3.8,3.7-3.8c2.1-0.1,3.8,1.6,3.9,3.7v0.1v9.1c0.6-0.3,1.3-0.5,2-0.4c1.6,0.1,2.9,1.2,3.3,2.7
			c0.6-0.3,1.2-0.5,1.8-0.5l0,0c1,0,1.9,0.4,2.6,1.1c0.3,0.3,0.6,0.7,0.7,1c0.6-0.4,1.4-0.7,2.2-0.7c2,0,3.7,1.8,3.7,3.8v3.6v1v8.1
			C545.5,972.1,541.4,976.2,536.4,976.2z M524.6,970.8c2.4,2.4,3.8,3.4,6.1,3.4h5.7c3.9,0,7.1-3.2,7.1-7.1V960v-1v-4.6
			c0-1-0.8-1.8-1.7-1.8c-0.9,0-1.6,0.6-1.8,1.5l0,0c-0.1,0.5-0.5,0.9-1.1,0.9l0,0c-0.5,0-1-0.5-1-1v-1c0-0.5-0.2-1-0.5-1.3
			c-0.3-0.3-0.8-0.5-1.2-0.5c-0.8,0-1.5,0.6-1.7,1.4l0,0c-0.1,0.5-0.6,0.9-1.1,0.8l0,0c-0.5,0-0.9-0.5-0.9-1v-1.7
			c0-0.9-0.7-1.7-1.6-1.8c-0.9-0.1-1.7,0.6-1.9,1.5l0,0c-0.1,0.5-0.5,0.9-1.1,0.9l0,0c-0.5,0-0.9-0.5-0.9-1v-12
			c0-0.4-0.2-0.9-0.5-1.2c-0.3-0.4-0.8-0.6-1.3-0.6c-0.9,0-1.7,0.8-1.7,1.8v21.8l0,0v1.2c0,0.4-0.3,0.8-0.7,1l0,0
			c-0.4,0.1-0.9,0-1.1-0.3l0,0l-3-3.7c-0.3-0.4-0.9-0.7-1.4-0.6c-0.3,0-0.5,0.1-0.8,0.2c-0.8,0.5-1.1,1.5-0.7,2.4
			c0,0.1,0.1,0.2,0.2,0.3L524.6,970.8z"/>
	</g>
	<path class="st4" d="M557.1,940.3c-7,5.8-7.9,16.3-2.1,23.3c5.6,6.6,15.1,7.8,22,3l1.4,1.6c-0.8,1-0.8,2.3,0,3.3l9.1,11
		c0.9,1.1,2.5,1.2,3.5,0.3l1.8-1.5c1-0.9,1.2-2.5,0.3-3.5l-9.2-11c-0.8-1-2.2-1.2-3.2-0.6l-1.4-1.6c5.9-6,6.4-15.6,0.9-22.2
		C574.5,935.3,564.1,934.4,557.1,940.3z M556.7,958.1c-2.8-6.1-0.2-13.3,5.9-16.1s13.3-0.2,16.1,5.9s0.2,13.3-5.9,16.1
		C566.7,966.8,559.5,964.1,556.7,958.1z"/>
</g>
<g id="Repères" class="st0">
	<g id="Exterieurs" class="st2">
	</g>
	<g id="Interieurs" class="st2">
	</g>
</g>
<g id="XMLID_34_" class="st0">
	
		<linearGradient id="XMLID_4_" gradientUnits="userSpaceOnUse" x1="967" y1="16106.9502" x2="1090" y2="16106.9502" gradientTransform="matrix(1 0 0 1 0 -15224)">
		<stop  offset="0" style="stop-color:#FFFFFF"/>
		<stop  offset="1" style="stop-color:#000000"/>
	</linearGradient>
	<rect id="XMLID_14_" x="967" y="821.2" class="st5" width="123" height="123.5"/>
	<g id="XMLID_25_" class="st2">
		<g>
			<g>
				<g>
					<defs>
						<rect id="SVGID_1_" x="967" y="821.2" width="123" height="123.5"/>
					</defs>
					<clipPath id="SVGID_2_">
						<use xlink:href="#SVGID_1_"  style="overflow:visible;"/>
					</clipPath>
					<path id="_x32__2_" class="st6" d="M1014.5,967.4c0,0,8.3-4,13.6-8.5c10.3-9,18.1-11.8,35.6-8.5s22.1,1.9,23,1.4l5.7-6.7
						c0,0,15.5,4.5,3.4-3.3c-24.6-15.8-47.8-6.4-58.6,1.3c-13.9,9.8-10.5,23.6-30.3,23.9L1014.5,967.4z"/>
				</g>
			</g>
		</g>
	</g>
	<g id="XMLID_24_" class="st2">
		<g>
			<g>
				<g>
					<defs>
						<rect id="SVGID_3_" x="967" y="821.2" width="123" height="123.5"/>
					</defs>
					<clipPath id="SVGID_4_">
						<use xlink:href="#SVGID_3_"  style="overflow:visible;"/>
					</clipPath>
					<path id="_x33__2_" class="st7" d="M993.8,962.9c0,0,12.7,8.3,41.4-20.1c28.6-28.4,68.8-6.6,81.7-1l2.8-15.7
						c0,0-43.4-18.7-85.2,6.8c-41.8,25.4-55.3,14.9-71.2,7.7l19.9,14.4c0,0,29.1,0.7,43.3-11.2c0,0-16.8,17.1-39.4,16.4L993.8,962.9
						z"/>
				</g>
			</g>
		</g>
	</g>
	<g id="XMLID_23_" class="st2">
		<g>
			<g>
				<g>
					<defs>
						<rect id="SVGID_5_" x="967" y="821.2" width="123" height="123.5"/>
					</defs>
					<clipPath id="SVGID_6_">
						<use xlink:href="#SVGID_5_"  style="overflow:visible;"/>
					</clipPath>
					<path id="_x34__2_" class="st8" d="M963.4,939.9c0,0,40.6,5.4,73.1-24.1s70.6-41.4,97.8-30.9l-11.5,37.5c0,0-31.8-25-78.8-0.7
						C996.8,946,988.1,945.3,963.4,939.9z"/>
				</g>
			</g>
		</g>
	</g>
	<g id="XMLID_22_" class="st2">
		<g>
			<g>
				<g>
					<defs>
						<rect id="SVGID_7_" x="967" y="821.2" width="123" height="123.5"/>
					</defs>
					<clipPath id="SVGID_8_">
						<use xlink:href="#SVGID_7_"  style="overflow:visible;"/>
					</clipPath>
					<path id="_x35__2_" class="st9" d="M957.3,936.7c0,0,41.9,5.7,59-14.3c17.2-19.9,39.4-86.9,106-74.1l8.8,32.8
						c0,0-44.8-24.4-86.9,24.9C1044.2,906,1007.1,947.5,957.3,936.7z"/>
				</g>
			</g>
		</g>
	</g>
	<g id="XMLID_21_" class="st2">
		<g>
			<g>
				<g>
					<defs>
						<rect id="SVGID_9_" x="967" y="821.2" width="123" height="123.5"/>
					</defs>
					<clipPath id="SVGID_10_">
						<use xlink:href="#SVGID_9_"  style="overflow:visible;"/>
					</clipPath>
					<path id="_x36__2_" class="st10" d="M956.2,934.5c0,0,31.5,6,40.3-7.4s15-19.6,13.6-25.5c-1.5-5.9-14.2-17.5-17.3-22.1
						s-14.9-17-38.9,0s-25.3,25.2-30.2,24.7l6.9,5.1c0,0,26-18.6,30.5-20.7s18-10.6,26.1-0.3c8.2,10.2,14.4,11.9,9.4,21.2
						c-5,9.4-13.8,20-48,16.3L956.2,934.5z"/>
				</g>
			</g>
		</g>
	</g>
	<g id="XMLID_20_" class="st2">
		<g>
			<g>
				<g>
					<defs>
						<rect id="SVGID_11_" x="967" y="821.2" width="123" height="123.5"/>
					</defs>
					<clipPath id="SVGID_12_">
						<use xlink:href="#SVGID_11_"  style="overflow:visible;"/>
					</clipPath>
					<path id="_x37__2_" class="st11" d="M931.2,909.9c0,0,29.8-22.3,40.8-25.4c0,0,12-4.4,15.7,7.9c0,0,2.5,5.4,5.6,7.8
						c0,0,11.8,8.9-10.3,21.6c0,0-10.9,6.7-35.6,3.4l-4-3.9c0,0,34.1,8.9,45.2-11.8c0,0,2.4-6.8-1.5-8.2c-3.8-1.4-6.9-6.2-7.2-6.9
						c-0.3-0.7-2.9-8.5-10.7-2.8C961.5,897.2,949.7,902.6,931.2,909.9z"/>
				</g>
			</g>
		</g>
	</g>
	<g id="XMLID_19_" class="st2">
		<g>
			<g>
				<g>
					<defs>
						<rect id="SVGID_13_" x="967" y="821.2" width="123" height="123.5"/>
					</defs>
					<clipPath id="SVGID_14_">
						<use xlink:href="#SVGID_13_"  style="overflow:visible;"/>
					</clipPath>
					<path id="_x38__2_" class="st12" d="M942.6,883.7c0,0,14.7-18.3,78.2-26c63.5-7.6,80.3-9.1,102.8-24.7c0,0-20.7-0.7-30.3-12.2
						c0,0-20,28.5-72.7,34.4C967.8,861.1,961.3,866.9,942.6,883.7z"/>
				</g>
			</g>
		</g>
	</g>
	<g id="XMLID_18_" class="st2">
		<g>
			<g>
				<g>
					<defs>
						<rect id="SVGID_15_" x="967" y="821.2" width="123" height="123.5"/>
					</defs>
					<clipPath id="SVGID_16_">
						<use xlink:href="#SVGID_15_"  style="overflow:visible;"/>
					</clipPath>
					<path id="_x39__2_" class="st13" d="M944.2,879.8c0,0,20.2-19.8,46.8-23.1c26.6-3.3,74-10.6,99-39.9c0,0-5.3,0-9.3-2.5
						c0,0-19.6,28.7-55.2,35c-35.6,6.2-48.8,2.6-82,30.5C913.1,905.3,944.2,879.8,944.2,879.8z"/>
				</g>
			</g>
		</g>
	</g>
	<g id="XMLID_17_" class="st2">
		<g>
			<g>
				<g>
					<defs>
						<rect id="SVGID_17_" x="967" y="821.2" width="123" height="123.5"/>
					</defs>
					<clipPath id="SVGID_18_">
						<use xlink:href="#SVGID_17_"  style="overflow:visible;"/>
					</clipPath>
					<path id="_x31_0_2_" class="st14" d="M944.4,870.9c0,0,23-20.3,65.6-20.8c42.7-0.5,68-36.1,64.9-50.1h-19.3
						c0,0,2,49.3-46.9,48.2C960,847.1,949,864,944.4,870.9z"/>
				</g>
			</g>
		</g>
	</g>
	<g id="XMLID_16_" class="st2">
		<g>
			<g>
				<g>
					<defs>
						<rect id="SVGID_19_" x="967" y="821.2" width="123" height="123.5"/>
					</defs>
					<clipPath id="SVGID_20_">
						<use xlink:href="#SVGID_19_"  style="overflow:visible;"/>
					</clipPath>
					<path id="_x31_1_2_" class="st15" d="M940.2,874.8c0,0,16-29,54.3-28.7c38.3,0.3,51.3-16.1,53.2-24.7c2-8.6,3.7-20.4-4.5-36.6
						l-6.2,12.1c0,0,20,26.9-16.5,41.3C990.3,850.2,968,830.6,940.2,874.8z"/>
				</g>
			</g>
		</g>
	</g>
	<g id="XMLID_15_" class="st2">
		<g>
			<g>
				<g>
					<defs>
						<rect id="SVGID_21_" x="967" y="821.2" width="123" height="123.5"/>
					</defs>
					<clipPath id="SVGID_22_">
						<use xlink:href="#SVGID_21_"  style="overflow:visible;"/>
					</clipPath>
					<path id="_x31_2_2_" class="st16" d="M947.3,852.2c0,0,11.4-10.9,37.4-11.7s51.5-9.6,49.5-28.3c-2-18.6-12.6-22.2-12.6-22.2
						l-14.7,7.7c0,0,37.5,16.2,3.5,30.9C976.3,843.3,966.3,832.9,947.3,852.2z"/>
				</g>
			</g>
		</g>
	</g>
	<g id="XMLID_2_" class="st2">
		<g>
			<g>
				<g>
					<defs>
						<rect id="SVGID_23_" x="967" y="821.2" width="123" height="123.5"/>
					</defs>
					<clipPath id="SVGID_24_">
						<use xlink:href="#SVGID_23_"  style="overflow:visible;"/>
					</clipPath>
					<path id="_x31_3_2_" class="st17" d="M954.1,837.6c0,0,38.9-2.3,50.3-14.5c11.4-12.3,3.6-22.4-2.9-25.2c0,0-2.5,6.9-15.4,8.8
						C986.1,806.7,1025,822.9,954.1,837.6z"/>
				</g>
			</g>
		</g>
	</g>
	<path id="XMLID_27_" class="st18" d="M1069.3,854.5c0,0-19.7,8.9-27.9,21.7c-8.2,12.8-15.2,20.6-21,33.3s-11.6,19.2-21.9,22.9
		c-10.3,3.7-23.5,4.6-31.5,4.6v-0.8c0,0,17.2,1.3,31.3-4.8c14-6.1,20.2-28.9,16.4-39.7C1010.9,881.1,1029.9,857.8,1069.3,854.5z"/>
</g>
<g id="XMLID_11_">
	
		<linearGradient id="XMLID_5_" gradientUnits="userSpaceOnUse" x1="685.7" y1="14963.4736" x2="871.1" y2="14963.4736" gradientTransform="matrix(1 0 0 1 0 -14940)">
		<stop  offset="0" style="stop-color:#FFFFFF"/>
		<stop  offset="1" style="stop-color:#000000"/>
	</linearGradient>
	<rect id="XMLID_74_" x="685.7" y="-69.6" class="st19" width="185.4" height="186.2"/>
	<g id="XMLID_72_">
		<g>
			<defs>
				<rect id="SVGID_25_" x="685.7" y="-69.6" width="185.4" height="186.2"/>
			</defs>
			<clipPath id="SVGID_26_">
				<use xlink:href="#SVGID_25_"  style="overflow:visible;"/>
			</clipPath>
			<path id="_x32__1_" class="st20" d="M757.3,150.8c0,0,12.6-6,20.5-12.9c15.5-13.5,27.3-17.8,53.7-12.8c26.4,5,33.3,2.9,34.6,2.1
				l8.6-10.1c0,0,23.4,6.8,5.1-4.9c-37.1-23.8-72-9.6-88.3,1.9c-20.9,14.8-15.8,35.5-45.7,36L757.3,150.8z"/>
		</g>
	</g>
	<g id="XMLID_69_">
		<g>
			<defs>
				<rect id="SVGID_27_" x="685.7" y="-69.6" width="185.4" height="186.2"/>
			</defs>
			<clipPath id="SVGID_28_">
				<use xlink:href="#SVGID_27_"  style="overflow:visible;"/>
			</clipPath>
			<path id="_x33__3_" class="st21" d="M726.1,144c0,0,19.2,12.5,62.4-30.4c43.2-42.8,103.7-9.9,123.1-1.5l4.3-23.6
				c0,0-65.4-28.1-128.4,10.2s-83.4,22.5-107.3,11.7l30,21.7c0,0,43.8,1,65.3-16.9c0,0-25.3,25.8-59.4,24.8L726.1,144z"/>
		</g>
	</g>
	<g id="XMLID_66_">
		<g>
			<defs>
				<rect id="SVGID_29_" x="685.7" y="-69.6" width="185.4" height="186.2"/>
			</defs>
			<clipPath id="SVGID_30_">
				<use xlink:href="#SVGID_29_"  style="overflow:visible;"/>
			</clipPath>
			<path id="_x34__3_" class="st22" d="M680.2,109.3c0,0,61.1,8.1,110.1-36.4s106.4-62.4,147.4-46.6l-17.4,56.5
				c0,0-47.9-37.8-118.8-1S717.4,117.5,680.2,109.3z"/>
		</g>
	</g>
	<g id="XMLID_63_">
		<g>
			<defs>
				<rect id="SVGID_31_" x="685.7" y="-69.6" width="185.4" height="186.2"/>
			</defs>
			<clipPath id="SVGID_32_">
				<use xlink:href="#SVGID_31_"  style="overflow:visible;"/>
			</clipPath>
			<path id="_x35__3_" class="st23" d="M671.1,104.4c0,0,63.1,8.5,88.9-21.5c25.9-30,59.4-130.9,159.8-111.7l13.3,49.5
				c0,0-67.5-36.7-131,37.5C802.1,58.2,746.2,120.9,671.1,104.4z"/>
		</g>
	</g>
	<g id="XMLID_60_">
		<g>
			<defs>
				<rect id="SVGID_33_" x="685.7" y="-69.6" width="185.4" height="186.2"/>
			</defs>
			<clipPath id="SVGID_34_">
				<use xlink:href="#SVGID_33_"  style="overflow:visible;"/>
			</clipPath>
			<path id="_x36__3_" class="st24" d="M669.4,101.2c0,0,47.5,9.1,60.8-11.1c13.3-20.2,22.7-29.5,20.4-38.4
				c-2.2-8.9-21.4-26.3-26.1-33.2c-4.7-6.9-22.4-25.6-58.6,0s-38.2,37.9-45.6,37.2l10.4,7.6c0,0,39.2-28.1,46-31.2
				c6.7-3.1,27.1-15.9,39.4-0.5s21.7,17.9,14.1,32c-7.5,14.1-20.8,30.2-72.4,24.6L669.4,101.2z"/>
		</g>
	</g>
	<g id="XMLID_57_">
		<g>
			<defs>
				<rect id="SVGID_35_" x="685.7" y="-69.6" width="185.4" height="186.2"/>
			</defs>
			<clipPath id="SVGID_36_">
				<use xlink:href="#SVGID_35_"  style="overflow:visible;"/>
			</clipPath>
			<path id="_x37__3_" class="st25" d="M631.8,64.1c0,0,45-33.6,61.5-38.3c0,0,18.1-6.6,23.7,11.9c0,0,3.7,8.2,8.4,11.7
				c0,0,17.9,13.4-15.5,32.6c0,0-16.5,10.1-53.7,5.2l-6-5.9c0,0,51.5,13.4,68.2-17.8c0,0,3.6-10.2-2.2-12.3s-10.3-9.4-10.8-10.5
				s-4.4-12.8-16.1-4.2C677.4,45,659.6,53.1,631.8,64.1z"/>
		</g>
	</g>
	<g id="XMLID_54_">
		<g>
			<defs>
				<rect id="SVGID_37_" x="685.7" y="-69.6" width="185.4" height="186.2"/>
			</defs>
			<clipPath id="SVGID_38_">
				<use xlink:href="#SVGID_37_"  style="overflow:visible;"/>
			</clipPath>
			<path id="_x38__3_" class="st26" d="M648.8,24.6c0,0,22.1-27.6,117.9-39.1s121.1-13.7,154.9-37.3c0,0-31.2-1-45.6-18.4
				c0,0-30.2,43-109.6,51.9C686.9-9.5,677.1-0.7,648.8,24.6z"/>
		</g>
	</g>
	<g id="XMLID_48_">
		<g>
			<defs>
				<rect id="SVGID_39_" x="685.7" y="-69.6" width="185.4" height="186.2"/>
			</defs>
			<clipPath id="SVGID_40_">
				<use xlink:href="#SVGID_39_"  style="overflow:visible;"/>
			</clipPath>
			<path id="_x39__3_" class="st27" d="M651.3,18.7c0,0,30.4-29.8,70.5-34.8c40.1-5,111.6-16,149.2-60.1c0,0-8,0-14-3.8
				c0,0-29.5,43.3-83.2,52.7c-53.7,9.4-73.6,3.9-123.7,46C604.4,57.2,651.3,18.7,651.3,18.7z"/>
		</g>
	</g>
	<g id="XMLID_42_">
		<g>
			<defs>
				<rect id="SVGID_41_" x="685.7" y="-69.6" width="185.4" height="186.2"/>
			</defs>
			<clipPath id="SVGID_42_">
				<use xlink:href="#SVGID_41_"  style="overflow:visible;"/>
			</clipPath>
			<path id="_x31_0_3_" class="st28" d="M651.7,5.3c0,0,34.6-31.1,98.9-31.9c64.3-0.7,102.5-53.2,97.8-76.2h-29
				c0,0,2.9,75-70.7,73.2C675.1-31.2,658.6-5.1,651.7,5.3z"/>
		</g>
	</g>
	<g id="XMLID_31_">
		<g>
			<defs>
				<rect id="SVGID_43_" x="685.7" y="-69.6" width="185.4" height="186.2"/>
			</defs>
			<clipPath id="SVGID_44_">
				<use xlink:href="#SVGID_43_"  style="overflow:visible;"/>
			</clipPath>
			<path id="_x31_1_3_" class="st29" d="M645.3,11.2c0,0,24.1-43.7,81.9-43.2c57.7,0.5,77.3-24.2,80.2-37.2c3-13,5.6-30.8-6.7-55.2
				l-9.4,18.2c0,0,30.2,40.6-24.9,62.3C720.9-25.9,687.1-55.4,645.3,11.2z"/>
		</g>
	</g>
	<g id="XMLID_29_">
		<g>
			<defs>
				<rect id="SVGID_45_" x="685.7" y="-69.6" width="185.4" height="186.2"/>
			</defs>
			<clipPath id="SVGID_46_">
				<use xlink:href="#SVGID_45_"  style="overflow:visible;"/>
			</clipPath>
			<path id="_x31_2_3_" class="st30" d="M655.9-22.8c0,0,17.2-16.4,56.3-17.6c39.1-1.2,77.6-14.5,74.6-42.6s-19-33.5-19-33.5
				l-22.1,11.6c0,0,56.5,24.4,5.2,46.5C699.7-36.2,684.6-51.9,655.9-22.8z"/>
		</g>
	</g>
	<g id="XMLID_26_">
		<g>
			<defs>
				<rect id="SVGID_47_" x="685.7" y="-69.6" width="185.4" height="186.2"/>
			</defs>
			<clipPath id="SVGID_48_">
				<use xlink:href="#SVGID_47_"  style="overflow:visible;"/>
			</clipPath>
			<path id="_x31_3_1_" class="st31" d="M666.2-44.9c0,0,58.6-3.4,75.8-21.9c17.2-18.5,5.4-33.7-4.4-37.9c0,0-3.7,10.3-23.1,13.3
				C714.5-91.4,773.1-67,666.2-44.9z"/>
		</g>
	</g>
	<path id="XMLID_13_" class="st3" d="M839.9-19.3c0,0-29.8,13.4-42.1,32.8c-12.3,19.4-23,31.1-31.7,50.2s-17.9,28.9-33.5,34.5
		s-33.9,6.8-47.9,6.8v-1.2c0,0,26.5,2,47.6-7.2c21.1-9.2,30.7-43.6,25-59.8C751.5,20.6,780.5-14.4,839.9-19.3z"/>
</g>
<g>
	<path class="st3" d="M954.6-40.3l0.1,1.3l-0.1,1.3l-0.1,1.2l-0.2,1.1l-0.4,1.1l-0.5,1.1l-0.6,1l-0.8,0.9l-0.8,0.8l-0.9,0.8l-1,0.7
		l-1,0.7l-1.1,0.5l-1.1,0.4l-1.2,0.3l-1.1,0.2l-1.1,0.2l-2.4,0.4l-1.2,0.1l-1.2,0.1h-4.2l-2.1-0.1l-3.5-0.1h-1.7l-2.6-0.1l-1.7,0.1
		h-2.6l-1.7-0.1l-2.6,0.1l-0.9,0.1l-0.9,0.1l-1.2-0.1l-0.4-0.1l-0.3-0.2l-0.2-0.2l-0.1-0.4l-0.2-1.1V-29l0.1-0.8l0.1-1.1l-0.1-1.1
		v-1.6l0.2-1.1l0.1-0.4l0.1-0.2l0.2-0.2l0.4-0.1l1.1-0.1l1.5,0.2l1.1-0.2l0.2-0.1V-36l-0.1-0.2l-0.1-0.3v-1.3l-0.1-1.8l-0.1-1.3
		l0.1-2.2l0.1-0.9v-1.3l0.1-1.3l0.1-1.8l0.1-1.3L916-51l-0.1-1.8l-0.1-1.3l0.1-1.3v-0.9l0.1-0.9l0.1-1.6l0.1-0.3v-0.6l-0.2-0.1
		l-1.1-0.1l-1.5,0.1l-1.1-0.1l-0.4-0.1l-0.2-0.1l-0.1-0.2l-0.1-0.4l-0.1-1.1l0.1-1.5v-1.1l-0.1-1.1l-0.3-1.6l0.1-1.1l0.1-0.4
		l0.2-0.2l0.3-0.2l0.4-0.1l1.2-0.1l1.7,0.2l2.6,0.1l1.7-0.2l1.3-0.1l1.3,0.1l1.7,0.2l1.3,0.1l1.3-0.1h1.7l1.3-0.1l2.1-0.1l0.9-0.1
		l2.6,0.1l3-0.1h1.2l2.2,0.2l2.2,0.4l1.1,0.2l2,0.7l2,1.1l1.7,1.4l1.4,1.7l1.1,2l0.5,2.1l0.2,2.3l-0.1,1.1l-0.4,2.1l-0.8,2l-0.6,0.9
		l-0.7,0.8l-0.9,0.7l-0.3,0.4l-0.1,0.4l0.1,0.4L950-48l1,1l0.9,1l0.8,1.1l1.2,2.4L954.6-40.3z M927.7-57.3v1.1l-0.1,1.1l-0.1,1.5
		l0.1,0.4l0.2,0.2l0.4,0.2l0.4,0.1h1.3l1.7,0.1h1.3l1.3-0.1l1.7-0.1l1.3-0.1l1.5-0.2l1.3-0.6l0.9-1l0.4-1.5l-0.2-1.4l-0.8-1.2
		l-1.2-0.9l-1.6-0.3h-1.3l-0.9,0.1l-1,0.1h-2.6l-1.8-0.1l-1.3-0.1l-0.4,0.1l-0.3,0.2l-0.2,0.3l-0.1,0.4L927.7-57.3z M940.1-35.9
		l1.4-1l0.8-1.4l0.3-1.5l-0.4-1.9l-1-1.4l-1.4-0.8l-1.8-0.2h-9.3l-0.4,0.1l-0.3,0.2l-0.2,0.3l-0.1,0.4v6.8l0.1,0.4l0.2,0.3l0.3,0.2
		l0.4,0.1h9.3L940.1-35.9z"/>
	<path class="st3" d="M1005.5-47.8l-0.2,2.2l-0.4,1.8l-0.2,2.2l-0.3,1.9l-1,2.1l-2.1,3.5l-1.2,1.5l-1.5,1.6l-1.5,1.2l-1.8,1.2
		l-1.7,1l-2,0.7l-1.9,0.5l-2,0.6l-2,0.5l-2,0.1h-2.1l-2.1-0.1l-2-0.2l-1.7-0.4l-4.2-1.3l-2-0.8l-1.9-0.9l-1.7-1l-1.5-1.4l-1.4-1.5
		l-1.5-1.5l-1.2-1.5l-0.8-2l-0.6-1.8l-0.6-2.1l-0.4-1.9l-0.3-2.1l-0.1-2l0.1-2.1l0.2-2l0.5-2.1l0.7-1.8l0.8-2.3l0.7-1.5l1.3-2.1
		l1-1.3l1.7-1.4l1.5-1.1l1.8-1.2l1.7-1l2.1-0.9l1.7-0.5l2.3-0.5l1.8-0.3l2.1-0.2l2-0.2l1.7,0.1l2.4,0.2l2.1,0.4l2,0.4l1.8,0.5
		l2.1,0.8l2,1l1.6,1.1l1.7,1.5l1.3,1.3l1.3,1.8l0.9,1.6l1.1,1.9l0.8,1.7l0.5,2.2l0.3,1.8l0.3,2.1L1005.5-47.8z M993-47.8l-0.1-2
		l-0.5-2.7l-1-2.1l-1.4-1.8l-1.5-1.5l-2.3-1.4l-1.9-0.5l-2.9-0.2l-2.1,0.2l-2.5,0.7l-2.3,1.2l-1.7,1.4l-1.3,1.7l-0.5,1.1l-0.5,1.4
		l-0.4,1.2l-0.2,1.7l-0.1,1.7l0.2,1.9l0.3,1.5l0.4,1.2l0.6,1.3l0.9,1.3l1.1,1.2l1.9,1.6l1.9,1l2.1,0.7l2.4,0.3l2.6-0.1l2.1-0.5
		l2.1-1.3l1.5-1.5l1.4-1.7l1.1-2.3l0.5-2.2L993-47.8z"/>
	<path class="st3" d="M1008.7-60.1l-0.4-0.8l0.1-1.9l0.2-1.9l-0.2-2l0.1-1.9l0.4-0.6l0.7-0.2l2-0.3h2.1l2,0.2l2.1,0.1l6.1-0.2h4
		l2,0.2l0.7,0.2l0.2,0.6l0.2,1.8l-0.1,2l0.1,1.9l-0.2,1.9l-0.2,0.7L1030-60l-1.6,0.2l-1.7,0.1l-0.5-0.2l-0.2,0.1l-0.2,2.3l0.2,2.3
		l-0.1,2.3v6.8l0.1,2.3l0.1,2.3l-0.1,2.3v2.3l-0.2,0.6l0.1,0.3l2,0.1l2.1,0.1l0.8,0.2l0.3,0.5l0.2,2l-0.1,2v1.9l-0.2,1.9l-0.2,0.7
		l-0.7,0.2l-2,0.1l-2.1-0.2l-2,0.1l-2.1,0.1h-2l-2,0.1h-4.1l-2.1,0.1l-2-0.1l-0.7-0.4l-0.2-0.7l-0.1-2l0.2-1.9l-0.2-2l0.1-2l0.3-0.7
		l0.8-0.3l1.8,0.1h1.9l0.2-0.3l-0.1-0.6l0.1-2.3v-4.5l0.1-2.3l0.2-4.5l-0.2-2.3l-0.2-2.3l0.3-2.3v-2.3l-0.4-0.2l-0.7,0.2l-1.6,0.1
		l-1.6-0.1L1008.7-60.1z"/>
	<path class="st3" d="M1076.8-69.2l0.2,0.2l0.2,0.7l0.1,2.5l0.1,2.4l-0.1,2.4l-0.1,2.5l0.2,2.4l0.1,0.8l-0.2,1.7l-0.1,0.4l-0.2,0.3
		l-0.3,0.2l-0.3,0.1l-0.9,0.1l-1.3-0.1l-2.1-0.2l-2.1,0.3l-0.9,0.1l-1.2-0.1l-0.4-0.1l-0.2-0.2l-0.1-0.3l-0.1-0.4l-0.4-2.1l-0.2-2.1
		l-0.1-0.5l-0.2-0.4l-0.4-0.3l-0.4-0.1l-0.9,0.1l-0.9,0.1l-0.8,0.3l-0.2,0.2l-0.1,0.5l0.1,2.1l0.1,2.1v4.2l-0.1,2.1l-0.1,2.1
		l-0.1,2.1l-0.1,2.1l0.1,2.1l0.1,2.1l-0.2,0.6l0.2,0.4l2,0.1l2.1-0.2l0.5,0.1l0.2,0.4l0.1,0.8v1.3l-0.2,2v2.1l0.1,2.1v0.5l-0.3,0.2
		l-1,0.2l-1.1-0.1l-2.2-0.2l-2.1,0.1h-2.1l-8.6,0.2l-2.2,0.2h-1l-1.2-0.2l-0.4-0.4v-0.7l-0.1-1.9l0.1-2l-0.2-1.9l-0.1-0.9l0.2-1.1
		l0.1-0.4l0.2-0.2l0.7-0.2l1.2-0.1l0.8,0.1l1.9-0.1l0.2-0.3L1050-37l0.1-2.1v-2.1l0.1-2.1l0.1-2.1V-56l-0.1-2.1l-0.1-0.4l-0.2-0.3
		l-0.4-0.3l-0.4-0.1l-1.1,0.1l-1.1,0.2l-0.5,0.1l-0.2,0.5l0.1,2.4l-0.1,1.3l-0.2,1l-0.1,0.4l-0.2,0.2l-0.3,0.2l-0.4,0.1l-1.1,0.1
		l-1-0.1l-2.1-0.2l-2.1,0.1l-2.1-0.2l-0.4-0.1l-0.2-0.1l-0.1-0.2l-0.1-0.4l-0.1-2.4l0.1-2.4l-0.2-2.5l-0.2-2.4V-66l0.3-2.4l0.1-0.4
		l0.1-0.2l0.3-0.1l0.4-0.1l2.1-0.2l2.2,0.1l2.2-0.1l2.2-0.1l2.1,0.2l2.2,0.1l2.2-0.1l2.2-0.1l6.5,0.2h2.2l2.2,0.1h2.2l4.3-0.1
		l2.2-0.2l1.1-0.1l1.1,0.1L1076.8-69.2z"/>
	<path class="st3" d="M1111.1-40.4l0.1-0.2l0.3-0.1l0.4-0.1l1.1-0.1l1.5-0.1h1.1l1.8-0.2l0.8-0.1l1.1,0.1l0.4,0.1l0.3,0.2l0.2,0.3
		l0.1,0.4l0.1,1.3l-0.4,1.7l-0.1,1.3l0.1,1.2l0.1,1.7v1.3l0.1,1.2l0.1,1.7l-0.1,1.3l-0.1,0.4l-0.2,0.3l-0.3,0.2l-0.4,0.1l-1.3,0.2
		h-1l-1-0.1l-1.4-0.1H1104l-1.9-0.2l-1.3-0.1l-1.4,0.1l-1.8,0.2h-1.4l-3.2-0.1h-2.7l-1.8-0.1l-2.7,0.1l-1.8-0.1l-1.3-0.2l-0.5-0.1
		l-0.3-0.1l-0.2-0.2l-0.1-0.4l-0.2-1.1l0.1-1.6l0.1-2.3l0.1-1.5l0.2-1.1l0.1-0.4l0.2-0.3l0.2-0.2l0.4-0.1l0.9-0.1l1.3,0.4l0.8-0.1
		l0.4-0.1l0.2-0.2l0.1-0.3l0.1-0.4l0.2-1.3l0.1-1.8l-0.1-2.6l-0.2-1.8l-0.1-2.6v-4.4l0.1-1.8l0.1-2.6l0.1-1.8l-0.1-1.3l-0.1-0.4
		l-0.2-0.2l-0.3-0.2l-0.4-0.1l-0.8-0.1l-1.2,0.1l-0.8-0.1l-0.4-0.1l-0.2-0.2l-0.1-0.2l-0.1-0.4l-0.2-1.1l-0.2-1.5v-2.3l0.1-1.5
		l0.2-1.1l0.1-0.4l0.1-0.4l0.2-0.2l0.4-0.1l1.3-0.1l1.8,0.4l1.3,0.1h3.2l1.4,0.1l2.2-0.1l0.9-0.1l3.6-0.1h2.3l2.3,0.1h0.9l2.6,0.1
		l1,0.1l2.2,0.1l2.3-0.1h2.3l1.3-0.1l1.8-0.2l1.3,0.1l0.4,0.1l0.2,0.2l0.1,0.3l0.4,2.5v3.3l0.1,1.7v3.3l-0.3,2.1l-0.1,0.4l-0.1,0.4
		l-0.2,0.2l-0.4,0.1l-1.1,0.2l-1.5-0.1l-1.1-0.1h-1.5l-1.5-0.1l-1.5-0.2l-0.2-0.2l-0.2-0.2l-0.1-0.4l-0.2-0.8l0.2-1.1l0.1-0.8v-0.6
		l-0.1-0.3l-0.2-0.1l-1.5-0.1l-2.2,0.2l-1.5,0.1l-3.7-0.1l-1.5,0.1l-0.4,0.1L1099-59l-0.2,0.2l-0.1,0.4v1.4l-0.1,1.9l0.2,1.4
		l0.1,0.4l0.1,0.3l0.2,0.1l0.4,0.1l1.2,0.2h0.9l0.8-0.1h1.3l1.2-0.1l0.8-0.1l0.8,0.1l1.7,0.2l0.4,0.1l0.2,0.2l0.1,0.4l0.2,1.1
		l-0.2,1.5l-0.1,1.2l0.1,1.1l0.1,1.5l-0.1,1.1l-0.1,0.4l-0.5,0.5l-0.4,0.1l-1.1,0.1l-1.6-0.2l-1.2-0.1l-1.1,0.1l-0.8,0.1l-2,0.1
		l-0.7,0.1l-0.5,0.3l-0.4,0.5l-0.1,0.6l0.1,1.2l0.1,0.9l0.1,0.8v1.3l0.1,0.3l0.1,0.2l0.2,0.2l0.2,0.1l1.6-0.1l2.1-0.1h4.3l1.1,0.1
		h1.5l0.3,0.1l0.2,0.1h0.2l0.2-0.2l0.2-1l-0.1-0.7l-0.1-0.7l0.2-1V-40.4z"/>
	<path class="st3" d="M943.3,23.5l0.2,0.2l0.4,0.3h0.5l0.4-0.3l0.2-0.5l-0.2-1.2l-0.2-0.8l-0.3-2l-0.1-1.2v-1.1l0.1-4.2l0.1-0.4
		v-0.2l-2.2,0.1l-1.2,0.1l-0.9-0.2l-0.2-0.5l0.1-0.7l0.1-1.9l0.1-2l-0.1-2l0.2-1.9l0.1-0.4l0.1-0.2l0.6-0.2l2.4-0.2l2.5,0.1l4.9-0.1
		l2.4,0.1l2.4,0.1l2.4-0.1l2.4,0.2l0.6,0.2l0.2,0.6l0.1,1.9l-0.1,2l0.1,2l-0.2,1.9l-0.2,0.5l-0.2,0.1l-0.4,0.1l-1.5,0.2l-1.5,0.1
		l-0.7-0.1l-0.4,0.1l-0.1,0.2v2.3l0.3,2.3l-0.2,2.3l-0.1,2.3l0.2,2.3l0.2,2.3l-0.2,4.5v4.6l0.1,2.3l0.2,2.3l-0.4,4.5l-0.2,0.6
		l-0.6,0.2l-2.2,0.4l-2.3,0.1l-2.3-0.1l-2.2-0.2l-0.5,0.1l-0.4-0.1l-1.4-1.7l-1.3-1.7l-1.3-1.7l-1.3-1.8l-1.3-1.7l-1.3-1.7l-1.4-1.7
		l-1.3-1.7l-1.2-1.8l-1.2-1.8l-1.4-1.6l-1.4-1.7l-0.3-0.6l-0.2-0.6l-0.3-0.2l-0.4,0.1l-0.5,0.3v0.2l0.1,3.9l0.1,2l0.1,2l-0.2,3.3
		v0.5l0.4,0.2l3.7,0.2l0.4,0.3v0.6l0.1,1.9v2l0.2,2l-0.1,1.9l-0.4,0.7l-0.7,0.2l-2.4,0.1l-2.5-0.2l-4.9,0.2h-4.9l-2.4-0.3l-2.5-0.2
		l-0.7-0.3l-0.4-0.7l-0.1-1.9l0.2-2l-0.1-2l0.1-1.9l0.2-0.7l0.7-0.3l0.6-0.1l1.1,0.2l1.6,0.1l0.4-0.1l0.3-0.2l0.4-0.7l0.1-2.1
		l-0.2-2.2V28l0.1-2.2l-0.1-2.2v-2.2l-0.1-2.1l-0.1-2.2l0.2-2.2l-0.2-2.1l-0.2-0.7l-0.2-0.2l-0.4-0.1h-1.6l-0.7,0.2l-1-0.1l-0.5-0.3
		l-0.2-0.7L911.1,9L911,7l-0.1-2l0.2-2l0.3-0.6l0.7-0.2l2.3-0.3h2.4l7,0.2l2.3,0.2h0.4l0.3,0.2l1.4,1.7l1.4,1.7l2.4,3.7l5.7,6.7
		l1.2,1.9l1.2,1.8l1.4,1.7l1.4,1.7L943.3,23.5z"/>
	<path class="st3" d="M1012.4,23.6l-0.2,2.2l-0.4,1.8l-0.2,2.2l-0.3,1.9l-1,2.1l-2.1,3.5l-1.2,1.5l-1.5,1.6l-1.5,1.2l-1.8,1.2
		l-1.7,1l-2,0.7l-1.9,0.5l-2,0.6l-2,0.5l-2,0.1h-2.1l-2.1-0.1l-2-0.2l-1.7-0.4l-4.2-1.3l-2-0.8l-1.9-0.9l-1.7-1l-1.5-1.4l-1.4-1.5
		l-1.5-1.5l-1.2-1.5l-0.8-2l-0.6-1.8l-0.6-2.1l-0.4-1.9l-0.3-2.1l-0.1-2l0.1-2.1l0.2-2l0.5-2.1l0.7-1.8l0.8-2.3l0.7-1.5l1.3-2.1
		l1-1.3l1.7-1.4L973,6l1.8-1.2l1.7-1l2.1-0.9l1.7-0.5l2.3-0.5l1.8-0.3l2.1-0.2l2-0.2l1.7,0.1l2.4,0.2l2.1,0.4l2,0.4l1.8,0.5l2.1,0.8
		l2,1l1.6,1.1l1.7,1.5l1.3,1.3l1.3,1.8l0.9,1.6l1.1,1.9l0.8,1.7l0.5,2.2l0.3,1.8l0.3,2.1L1012.4,23.6z M999.9,23.6l-0.1-2l-0.5-2.7
		l-1-2.1l-1.4-1.8l-1.5-1.5l-2.3-1.4l-1.9-0.5l-2.9-0.2l-2.1,0.2l-2.5,0.7l-2.3,1.2l-1.7,1.4l-1.3,1.7l-0.5,1.1l-0.5,1.4l-0.4,1.3
		l-0.2,1.7l-0.1,1.7l0.2,1.9l0.3,1.5l0.4,1.3l0.6,1.3l0.9,1.3l1.1,1.3l1.9,1.6l1.9,1l2.1,0.7l2.4,0.3l2.6-0.1l2.1-0.5l2.1-1.3
		l1.5-1.5l1.4-1.7l1.1-2.3l0.5-2.2L999.9,23.6z"/>
	<path class="st3" d="M1015.6,11.3l-0.4-0.8l0.1-1.9l0.2-1.9l-0.2-2l0.1-1.9l0.4-0.6l0.7-0.2l2-0.3h2.1l2,0.2l2.1,0.1l6.1-0.2h4
		l2,0.2l0.7,0.2l0.2,0.6l0.2,1.8l-0.1,2l0.1,1.9l-0.2,1.9l-0.2,0.7l-0.6,0.3l-1.6,0.2l-1.7-0.1l-0.5-0.2l-0.2,0.1l-0.2,2.3l0.2,2.3
		l-0.1,2.3v6.8l0.1,2.3l0.1,2.3l-0.1,2.3v2.3l-0.2,0.6l0.1,0.3l2,0.1l2.1,0.1l0.8,0.2l0.3,0.5l0.2,2l-0.1,2V42l-0.2,1.9l-0.2,0.7
		l-0.7,0.2l-2,0.1l-2.1-0.2l-2,0.1l-2.1,0.1h-2l-2,0.1h-4.1l-2.1,0.1l-2-0.1l-0.7-0.4l-0.2-0.7l-0.1-2l0.2-1.9l-0.2-2l0.1-2l0.3-0.7
		l0.8-0.3l1.8,0.1h1.9l0.2-0.3l-0.1-0.6l0.1-2.3v-4.5l0.1-2.3l0.2-4.5l-0.2-2.3l-0.2-2.3l0.3-2.3v-2.3l-0.4-0.2l-0.7,0.2l-1.6,0.1
		l-1.6-0.1L1015.6,11.3z"/>
	<path class="st3" d="M1087.8,44l0.1,0.7l-0.3,0.4l-2.1,0.1l-2.1-0.2l-2.1-0.1l-2.1-0.1l-2.1,0.1l-2.1,0.2l-2.1,0.1l-2.1-0.3
		l-0.4-0.3l-0.1-0.6l0.1-2.5l0.2-2.5v-0.3l-0.1-0.3l-1.1-1.7l-1.2-1.7l-2.6-3.2l-0.5-0.5l-0.7-0.2l-1-0.1h-1l-0.5-0.1l-0.5-0.1
		l-0.3,0.1l-0.2,0.2l-0.1,0.7v3.3l0.1,0.5l0.2,0.2l0.2,0.1l1.6-0.1l1.5,0.2l0.4,0.1l0.2,0.2l0.2,0.4l0.2,1.1v1l-0.2,1.7v1.7
		l-0.1,1.7l-0.1,0.3l-0.2,0.2l-0.7,0.2l-2.1,0.2l-2.1,0.1l-2.1-0.1l-2.1-0.2l-4.2,0.2h-4.2l-2.1,0.1l-2.1-0.2l-0.2-0.4l0.1-0.6
		l0.1-2.2l0.1-2.1l-0.1-2.1l0.2-2.1l0.2-0.3l0.5,0.1l1.7,0.2l1.7-0.1l0.6-0.2l0.1-0.2l0.1-0.4l0.1-2.2l-0.2-2.2l0.2-2.2l0.1-2.2
		l-0.2-4.4l0.2-2.2l0.1-2.2l-0.1-2.2l-0.2-2.2l0.1-0.7l-0.1-0.4l-0.2-0.1l-3.3,0.4l-1.2-0.1l-0.4-0.4v-0.7l-0.1-1.9V4.6l0.1-1.9
		l0.1-0.4l0.3-0.3l0.5-0.3l0.5-0.1l4.1,0.2h4.2l2,0.1h2.1l2,0.1h2.1l4.1-0.2l6.2,0.2l2,0.3l2.1,0.4l1.9,0.7l1.9,1l1.7,1.1l1.5,1.5
		l1.1,1.7l1.1,1.8l0.8,1.9l0.4,2.1l0.1,2.1l-0.2,2.6l-0.7,2.4l-1,2.3l-1.5,2.1l-1.9,1.4l-2.3,1.3L1078,29l-0.2,0.4v0.5l0.2,0.4
		l1.7,2.4l1.8,2.3l0.4,0.3l0.5,0.1l2.1-0.1l2.1,0.1l0.7,0.3l0.2,0.2l0.1,0.4l0.2,1.1v0.8l-0.1,3.9L1087.8,44z M1073.3,19.6l0.4-0.8
		l0.2-1l0.1-1l-0.1-1l-0.2-0.9l-0.4-0.9l-0.6-0.7l-0.6-0.7l-0.8-0.5l-0.9-0.4l-1.1-0.1l-1.2,0.1l-0.8,0.1l-0.8,0.1l-1.2,0.1
		l-1.1-0.1l-0.8-0.1l-0.8-0.1l-1.2-0.1l-0.4,0.1l-0.2,0.2l-0.1,0.4l-0.1,0.4V14l-0.1,0.9v0.8l-0.1,1.3v2.1l0.1,0.8l0.1,1.3v0.4
		l0.2,0.3l0.2,0.2l0.4,0.1h1.2l0.8,0.1h0.8l1.2,0.1l1.2-0.1l0.8-0.2l0.8-0.1l2.2-0.1l0.9-0.3l0.8-0.4l0.7-0.6L1073.3,19.6z"/>
	<path class="st3" d="M1122.1,31l0.1-0.2l0.3-0.1l0.4-0.1l1.1-0.1l1.5-0.1h1.1l1.8-0.2l0.8-0.1l1.1,0.1l0.4,0.1l0.3,0.2l0.2,0.3
		l0.1,0.4l0.1,1.3l-0.4,1.7l-0.1,1.3l0.1,1.2l0.1,1.7v1.3l0.1,1.3l0.1,1.7l-0.1,1.3l-0.1,0.4l-0.2,0.3l-0.3,0.2l-0.4,0.1l-1.3,0.2
		h-1l-1-0.1l-1.2,0.2h-10.5l-1.9-0.2L1112,45l-1.4,0.1l-1.8,0.2h-1.4l-3.2-0.1h-2.7l-1.8-0.1l-2.7,0.1l-1.8-0.1l-1.3-0.2l-0.5-0.1
		l-0.3-0.1l-0.2-0.2l-0.1-0.4l-0.2-1.1l0.1-1.6l0.1-2.3l0.1-1.5l0.2-1.1l0.1-0.4l0.2-0.3l0.2-0.2l0.4-0.1l0.9-0.1l1.3,0.4l0.8-0.1
		l0.4-0.1l0.2-0.2l0.1-0.3l0.1-0.4l0.2-1.3l0.1-1.8L1098,29l-0.2-1.8l-0.1-2.6v-4.4l0.1-1.8l0.1-2.6l0.1-1.8l-0.1-1.3l-0.1-0.4
		l-0.2-0.2l-0.3-0.2l-0.4-0.1l-0.8-0.1l-1.2,0.1l-0.8-0.1l-0.4-0.1l-0.2-0.2l-0.1-0.2l-0.1-0.4l-0.2-1.1l-0.2-1.5V5.9l0.1-1.5
		l0.2-1.1l0.1-0.4l0.1-0.4l0.2-0.2l0.4-0.1l1.3-0.1l1.8,0.4l1.3,0.1h3.2l1.4,0.1l2.2-0.1l0.9-0.1l3.6-0.1h2.3l2.3,0.1h0.9l2.6,0.1
		l1,0.1l2.2,0.1l2.3-0.1h2.3l1.3-0.1l1.8-0.2l1.3,0.1l0.4,0.1l0.2,0.2l0.1,0.3l0.4,2.5v3.3l0.1,1.7v3.3l-0.3,2.1l-0.1,0.4l-0.1,0.4
		l-0.2,0.2l-0.4,0.1l-1.1,0.2l-1.5-0.1l-1.1-0.1h-1.7l-1.5-0.1l-1.5-0.2l-0.2-0.2l-0.2-0.2l-0.1-0.4l-0.2-0.8l0.2-1.1l0.1-0.8v-0.6
		l-0.1-0.3l-0.2-0.1l-1.5-0.1l-2.2,0.2l-1.5,0.1l-3.7-0.1l-1.5,0.1l-0.4,0.1l-0.2,0.2l-0.2,0.2l-0.1,0.4v1.4l-0.1,1.9l0.2,1.4
		l0.1,0.4l0.1,0.3l0.2,0.1l0.4,0.1l1.2,0.2h0.9l0.8-0.1h1.3l1.2-0.1l0.8-0.1l0.8,0.1l1.7,0.2l0.4,0.1l0.2,0.2l0.1,0.4l0.2,1.1
		l-0.2,1.5l-0.1,1.2l0.1,1.1l0.1,1.5l-0.1,1.1l-0.1,0.4l-0.5,0.5l-0.4,0.1l-1.1,0.1l-1.6-0.2l-1.2-0.1l-1.1,0.1l-0.8,0.1l-2,0.1
		l-0.7,0.1l-0.5,0.3l-0.4,0.5l-0.1,0.6l0.1,1.2l0.1,0.9l0.1,0.8v1.2l0.1,0.3l0.1,0.2l0.2,0.2l0.2,0.1l1.6-0.1l2.1-0.1h4.3l1.1,0.1
		h1.5l0.3,0.1l0.2,0.1h0.2l0.2-0.2l0.2-1l-0.1-0.7l-0.1-0.7l0.2-1V31z"/>
	<path class="st3" d="M924.4,111.9l-0.1,1l-0.2,1l-0.4,1l-0.5,0.8l-0.7,0.8l-0.8,0.6l-0.8,0.4l-1,0.2l-1,0.1h-1.1l-1.4-0.1l-1.2-0.2
		l-1.1-0.5l-0.9-0.6l-0.8-1l-0.7-1.1l-0.4-1.2l-0.1-1.2l0.1-1.2l0.5-1.1l0.7-1.1l0.8-0.9l0.9-0.7l1-0.6l1.2-0.4l1.4-0.1l1.1,0.1
		l1,0.3l0.8,0.4l0.8,0.5l0.8,0.6l0.7,0.7l0.5,0.8l0.4,0.9l0.3,1L924.4,111.9z"/>
	<path class="st3" d="M975.8,95l-0.2,2.2l-0.4,1.8l-0.2,2.2l-0.3,1.9l-1,2.1l-2.1,3.5l-1.2,1.5l-1.5,1.6l-1.5,1.2l-1.8,1.2l-1.7,1
		l-2,0.7l-1.9,0.5l-2,0.6l-2,0.5l-2,0.1h-2.1l-2.1-0.1l-2-0.2l-1.7-0.4l-4.2-1.3l-2-0.8l-1.9-0.9l-1.7-1l-1.5-1.4l-1.4-1.5l-1.5-1.5
		l-1.2-1.5l-0.8-2l-0.6-1.8l-0.6-2.1l-0.4-1.9l-0.3-2.1l-0.1-2L928,93l0.2-2l0.5-2.1l0.7-1.8l0.8-2.3l0.7-1.5l1.3-2.1l1-1.3l1.7-1.4
		l1.5-1.1l1.8-1.2l1.7-1l2.1-0.9l1.7-0.5l2.3-0.5l1.8-0.3l2.1-0.2l2-0.2l1.7,0.1l2.4,0.2l2.1,0.4l2,0.4l1.8,0.5L964,75l2,1l1.6,1.1
		l1.7,1.5l1.3,1.3l1.3,1.8l0.9,1.6l1.1,1.9l0.8,1.7l0.5,2.2l0.3,1.8l0.3,2.1L975.8,95z M963.3,95l-0.1-2l-0.5-2.7l-1-2.1l-1.4-1.8
		l-1.5-1.5l-2.3-1.4l-1.9-0.5l-2.9-0.2l-2.1,0.2l-2.5,0.7l-2.3,1.2l-1.7,1.4l-1.3,1.7l-0.5,1.1l-0.5,1.4l-0.4,1.3l-0.2,1.7l-0.1,1.7
		l0.2,1.9l0.3,1.5l0.4,1.3l0.6,1.3l0.9,1.3l1.1,1.3l1.9,1.6l1.9,1l2.1,0.7l2.4,0.3l2.6-0.1l2.1-0.5l2.1-1.3l1.5-1.5l1.4-1.7l1.1-2.3
		l0.5-2.2L963.3,95z"/>
	<path class="st3" d="M1023.4,115.4l0.1,0.7l-0.3,0.4l-2.1,0.1l-2.1-0.2l-2.1-0.1l-2.1-0.1l-2.1,0.1l-2.1,0.2l-2.1,0.1l-2.1-0.3
		l-0.4-0.3l-0.1-0.6l0.1-2.5l0.2-2.5v-0.3l-0.1-0.3l-1.1-1.7l-1.2-1.7l-2.6-3.2l-0.5-0.5l-0.7-0.2l-1-0.1h-1l-0.5-0.1l-0.5-0.1
		l-0.3,0.1l-0.2,0.2l-0.1,0.7v3.3l0.1,0.5l0.2,0.2l0.2,0.1l1.6-0.1l1.5,0.2l0.4,0.1l0.2,0.2l0.2,0.4l0.2,1.1v1l-0.2,1.7v1.7
		l-0.1,1.7l-0.1,0.3l-0.2,0.2l-0.7,0.2l-2.1,0.2l-2.1,0.1l-2.1-0.1l-2.1-0.2l-4.2,0.2h-4.2l-2.1,0.1l-2.1-0.2l-0.2-0.4l0.1-0.6
		l0.1-2.2l0.1-2.1l-0.1-2.1l0.2-2.1l0.2-0.3l0.5,0.1l1.7,0.2l1.7-0.1l0.6-0.2l0.1-0.2l0.1-0.4l0.1-2.2l-0.2-2.2l0.2-2.2l0.1-2.2
		l-0.2-4.4l0.2-2.2l0.1-2.2l-0.1-2.2l-0.2-2.2l0.1-0.7l-0.1-0.4l-0.2-0.1l-3.3,0.4l-1.2-0.1l-0.4-0.4v-0.7l-0.1-1.9v-3.5l0.1-1.9
		l0.1-0.4l0.3-0.3l0.5-0.3l0.5-0.1l4.1,0.2h4.2l2,0.1h2.1l2,0.1h2.1l4.1-0.2l6.2,0.2l2,0.3l2.1,0.4l1.9,0.7l1.9,1l1.7,1.1l1.5,1.5
		l1.1,1.7l1.1,1.8l0.8,1.9l0.4,2.1l0.1,2.1l-0.2,2.6l-0.7,2.4l-1,2.3l-1.5,2.1l-1.9,1.4l-2.3,1.3l-0.3,0.3l-0.2,0.4v0.5l0.2,0.4
		l1.7,2.4l1.8,2.3l0.4,0.3l0.5,0.1l2.1-0.1l2.1,0.1l0.7,0.3l0.2,0.2l0.1,0.4l0.2,1.1v0.8l-0.1,3.9L1023.4,115.4z M1008.9,91l0.4-0.8
		l0.2-1l0.1-1l-0.1-1l-0.2-0.9l-0.4-0.9l-0.5-0.7l-0.6-0.7l-0.8-0.5l-0.9-0.4L1005,83l-1.2,0.1l-0.8,0.1l-0.8,0.1l-1.2,0.1l-1.1-0.1
		l-0.8-0.1l-0.8-0.1l-1.2-0.1l-0.4,0.1l-0.2,0.2l-0.1,0.4l-0.1,0.4v1.3l-0.1,0.9v0.8l-0.1,1.3v2.1l0.1,0.8l0.1,1.2v0.4l0.2,0.3
		l0.2,0.2l0.4,0.1h1.2l0.8,0.1h0.8l1.2,0.1l1.2-0.1l0.8-0.2l0.8-0.1l2.2-0.1l0.9-0.3l0.8-0.4l0.7-0.6L1008.9,91z"/>
	<path class="st3" d="M1056.2,84.2l-0.1-0.2l-0.2-0.1l-1.7-0.6l-3.1-0.6h-2.7l-1.2,0.2l-1.2,0.2l-1.2,0.3l-1.1,0.5l-1.1,0.6l-1,0.8
		l-0.8,0.8L1040,87l-0.7,0.9l-0.5,1.1l-0.4,1.2l-0.3,1.1l-0.2,1.2l-0.2,1.2l-0.1,1.4l0.1,1.2l0.1,1.3l0.2,1.2l0.3,1l0.4,1.2l0.6,1
		l0.7,1l0.8,0.8l0.9,0.8l1,0.6l1.1,0.5l1.1,0.4l1.1,0.3l1.2,0.2l1.1,0.2h3.2l1-0.1l1-0.2l0.9-0.2l1-0.4l1.7-0.9l0.2-0.2l0.1-0.2
		l0.1-0.5l0.1-0.6l0.1-0.4l0.1-0.4l-0.1-0.5l-0.1-0.4l-0.2-0.2l-0.2-0.2l-1.7-0.2l-1.9,0.2l-2.7,0.1l-0.9,0.1h-0.9l-1.4-0.1
		l-0.4-0.2l-0.2-0.2l-0.2-0.8l-0.2-1l-0.1-1.3l0.1-1l-0.1-1l0.1-1.4l0.2-1l0.1-0.4l0.2-0.2l0.2-0.2l0.4-0.1l1.4-0.2l1.9,0.1h2.9
		l2-0.1l1.4-0.1h1.5l2,0.1l4.8,0.1l1.5,0.2l0.4,0.1l0.3,0.1l0.2,0.2l0.1,0.4l0.2,1.5v1l-0.1,1l-0.1,1.5v6.3l0.1,1v2.5l-0.1,0.1v0.1
		l-0.7,1.1l-1.4,1.7l-1.5,1.5l-1.8,1.2l-0.9,0.5l-2,0.7l-4.1,1.3l-2.1,0.5l-2.1,0.1l-2.1,0.1l-2.4-0.1l-2.3-0.1l-2.3-0.4l-2.2-0.5
		l-2.2-0.8l-2.1-1l-2-1.3l-1.7-1.5l-1.5-1.6l-0.7-1l-0.6-1l-0.7-1l-1.3-1.9l-0.5-1.1l-0.2-1.1l-0.4-2.3l-0.1-1.2l-0.3-2.2l-0.1-1.1
		v-2.4l0.2-2.3l0.4-2.3l0.4-2.3l0.3-1.1l0.5-1.1l0.7-1l0.6-1l0.7-0.9l1.5-1.7l1.7-1.6l0.8-0.7l1-0.7l1-0.7l3-1.6l2.1-0.9l2.2-0.5
		l1.2-0.1l3.5-0.5l1.1-0.1l1.2-0.1l2.3,0.2l2.3,0.4l1.2,0.1l2.3,0.5l2.2,0.8l1,0.6l1,0.5l1.9,1.3l1.8,1.4l0.9,0.8l0.1,0.2l0.2,0.1
		l0.1,0.1l0.1,0.3V81l-0.1,0.7l-0.1,0.8l-0.1,1.3l0.1,1.2l0.1,0.9l0.1,0.8l-0.1,1.1l-0.2,0.4l-0.2,0.2l-0.2,0.2l-0.4,0.2l-1.2,0.1
		h-1.8l-1.2-0.1l-2.2,0.1l-0.8-0.1l-1.3-0.2l-0.4-0.1l-0.2-0.1l-0.3-0.6l-0.1-0.9v-1.4l-0.1-1L1056.2,84.2z"/>
</g>
</svg>
